<svg width="20" height="19" viewBox="0 0 20 19" fill="none" xmlns="http://www.w3.org/2000/svg">
<rect x="1" y="1.38672" width="18" height="16.1333" rx="4" stroke="#F8A978" stroke-width="2"/>
<path fill-rule="evenodd" clip-rule="evenodd" d="M10.0002 5.22229C10.177 5.22229 10.3465 5.28597 10.4716 5.39933C10.5966 5.51268 10.6668 5.66643 10.6668 5.82673V8.84896H14.0002C14.177 8.84896 14.3465 8.91264 14.4716 9.02599C14.5966 9.13935 14.6668 9.29309 14.6668 9.4534C14.6668 9.61371 14.5966 9.76745 14.4716 9.88081C14.3465 9.99416 14.177 10.0578 14.0002 10.0578H10.6668V13.0801C10.6668 13.2404 10.5966 13.3941 10.4716 13.5075C10.3465 13.6208 10.177 13.6845 10.0002 13.6845C9.82335 13.6845 9.65378 13.6208 9.52876 13.5075C9.40373 13.3941 9.3335 13.2404 9.3335 13.0801V10.0578H6.00016C5.82335 10.0578 5.65378 9.99416 5.52876 9.88081C5.40373 9.76745 5.3335 9.61371 5.3335 9.4534C5.3335 9.29309 5.40373 9.13935 5.52876 9.02599C5.65378 8.91264 5.82335 8.84896 6.00016 8.84896H9.3335V5.82673C9.3335 5.66643 9.40373 5.51268 9.52876 5.39933C9.65378 5.28597 9.82335 5.22229 10.0002 5.22229Z" fill="#F8A978"/>
</svg>
